<svg xmlns="http://www.w3.org/2000/svg" xmlns:xlink="http://www.w3.org/1999/xlink" width="500" zoomAndPan="magnify" viewBox="0 0 375 374.999991" height="500" preserveAspectRatio="xMidYMid meet" version="1.0"><defs><g/><clipPath id="5d0a9fa9b4"><path d="M 114 47.074219 L 223 47.074219 L 223 108 L 114 108 Z M 114 47.074219 " clip-rule="nonzero"/></clipPath><clipPath id="947230b33a"><path d="M 151 196 L 249 196 L 249 245.824219 L 151 245.824219 Z M 151 196 " clip-rule="nonzero"/></clipPath><clipPath id="a4cc036cd1"><path d="M 238 196 L 337 196 L 337 245.824219 L 238 245.824219 Z M 238 196 " clip-rule="nonzero"/></clipPath></defs><path fill="#73b3b2" d="M 254.378906 186.921875 C 254.378906 187.652344 254.347656 188.386719 254.277344 189.117188 C 254.207031 189.847656 254.105469 190.574219 253.964844 191.300781 C 253.828125 192.03125 253.65625 192.753906 253.449219 193.480469 C 253.242188 194.203125 253 194.921875 252.726562 195.640625 C 252.453125 196.355469 252.144531 197.070312 251.800781 197.78125 C 251.457031 198.488281 251.082031 199.191406 250.675781 199.894531 C 250.265625 200.59375 249.824219 201.285156 249.347656 201.976562 C 248.875 202.664062 248.367188 203.347656 247.828125 204.019531 C 247.289062 204.695312 246.71875 205.367188 246.117188 206.027344 C 245.515625 206.6875 244.882812 207.339844 244.21875 207.984375 C 243.554688 208.628906 242.859375 209.265625 242.136719 209.894531 C 241.410156 210.519531 240.65625 211.136719 239.875 211.746094 C 239.09375 212.355469 238.28125 212.953125 237.441406 213.539062 C 236.601562 214.125 235.738281 214.703125 234.84375 215.269531 C 233.949219 215.832031 233.03125 216.386719 232.082031 216.929688 C 231.136719 217.46875 230.167969 218 229.171875 218.515625 C 228.175781 219.035156 227.15625 219.539062 226.109375 220.027344 C 225.066406 220.519531 224 220.996094 222.914062 221.460938 C 221.824219 221.925781 220.714844 222.375 219.582031 222.8125 C 218.449219 223.246094 217.300781 223.667969 216.128906 224.074219 C 214.957031 224.480469 213.765625 224.871094 212.558594 225.246094 C 211.351562 225.621094 210.125 225.984375 208.882812 226.328125 C 207.640625 226.671875 206.382812 227 205.109375 227.3125 C 203.835938 227.625 202.550781 227.921875 201.246094 228.203125 C 199.945312 228.480469 198.632812 228.746094 197.304688 228.992188 C 195.980469 229.238281 194.644531 229.46875 193.292969 229.679688 C 191.945312 229.890625 190.589844 230.085938 189.222656 230.265625 C 187.855469 230.441406 186.484375 230.601562 185.101562 230.746094 C 183.71875 230.886719 182.332031 231.011719 180.9375 231.121094 C 179.546875 231.226562 178.148438 231.316406 176.746094 231.386719 C 175.34375 231.460938 173.941406 231.511719 172.53125 231.550781 C 171.125 231.585938 169.71875 231.601562 168.308594 231.601562 C 166.902344 231.601562 165.492188 231.585938 164.085938 231.550781 C 162.679688 231.511719 161.273438 231.460938 159.875 231.386719 C 158.472656 231.316406 157.074219 231.226562 155.679688 231.121094 C 154.285156 231.011719 152.898438 230.886719 151.519531 230.746094 C 150.136719 230.601562 148.761719 230.441406 147.394531 230.265625 C 146.03125 230.085938 144.671875 229.890625 143.324219 229.679688 C 141.976562 229.46875 140.640625 229.238281 139.3125 228.992188 C 137.988281 228.746094 136.671875 228.480469 135.371094 228.203125 C 134.070312 227.921875 132.78125 227.625 131.507812 227.3125 C 130.234375 227 128.976562 226.671875 127.734375 226.328125 C 126.492188 225.984375 125.269531 225.621094 124.058594 225.246094 C 122.851562 224.871094 121.664062 224.480469 120.492188 224.074219 C 119.320312 223.667969 118.167969 223.246094 117.039062 222.8125 C 115.90625 222.375 114.796875 221.925781 113.707031 221.460938 C 112.617188 220.996094 111.550781 220.519531 110.507812 220.027344 C 109.464844 219.539062 108.445312 219.035156 107.449219 218.515625 C 106.453125 218 105.480469 217.46875 104.535156 216.929688 C 103.589844 216.386719 102.667969 215.832031 101.777344 215.269531 C 100.882812 214.703125 100.015625 214.125 99.175781 213.539062 C 98.335938 212.953125 97.527344 212.355469 96.746094 211.746094 C 95.960938 211.136719 95.207031 210.519531 94.484375 209.894531 C 93.761719 209.265625 93.066406 208.628906 92.402344 207.984375 C 91.738281 207.339844 91.105469 206.6875 90.503906 206.027344 C 89.898438 205.367188 89.328125 204.695312 88.789062 204.019531 C 88.25 203.347656 87.746094 202.664062 87.269531 201.976562 C 86.796875 201.285156 86.355469 200.59375 85.945312 199.894531 C 85.535156 199.191406 85.160156 198.488281 84.816406 197.78125 C 84.476562 197.070312 84.167969 196.355469 83.890625 195.640625 C 83.617188 194.921875 83.378906 194.203125 83.171875 193.480469 C 82.964844 192.753906 82.792969 192.03125 82.652344 191.300781 C 82.515625 190.574219 82.410156 189.84375 82.34375 189.117188 C 82.273438 188.386719 82.238281 187.652344 82.238281 186.921875 C 82.238281 186.191406 82.273438 185.460938 82.34375 184.730469 C 82.410156 184 82.515625 183.269531 82.652344 182.542969 C 82.792969 181.816406 82.964844 181.089844 83.171875 180.367188 C 83.378906 179.644531 83.617188 178.921875 83.890625 178.207031 C 84.167969 177.488281 84.476562 176.777344 84.816406 176.066406 C 85.160156 175.355469 85.535156 174.652344 85.945312 173.953125 C 86.355469 173.253906 86.796875 172.558594 87.269531 171.871094 C 87.746094 171.183594 88.25 170.5 88.789062 169.824219 C 89.328125 169.148438 89.898438 168.480469 90.503906 167.820312 C 91.105469 167.160156 91.738281 166.503906 92.402344 165.859375 C 93.066406 165.214844 93.761719 164.578125 94.484375 163.953125 C 95.207031 163.324219 95.960938 162.707031 96.746094 162.101562 C 97.527344 161.492188 98.335938 160.894531 99.175781 160.308594 C 100.015625 159.71875 100.882812 159.144531 101.777344 158.578125 C 102.667969 158.011719 103.589844 157.460938 104.535156 156.917969 C 105.480469 156.375 106.453125 155.847656 107.449219 155.328125 C 108.445312 154.8125 109.464844 154.308594 110.507812 153.816406 C 111.550781 153.324219 112.617188 152.847656 113.707031 152.382812 C 114.796875 151.921875 115.90625 151.472656 117.039062 151.035156 C 118.167969 150.601562 119.320312 150.179688 120.492188 149.773438 C 121.664062 149.367188 122.851562 148.976562 124.058594 148.597656 C 125.269531 148.222656 126.492188 147.863281 127.734375 147.519531 C 128.976562 147.171875 130.234375 146.84375 131.507812 146.53125 C 132.78125 146.21875 134.070312 145.921875 135.371094 145.644531 C 136.671875 145.363281 137.988281 145.101562 139.3125 144.855469 C 140.640625 144.609375 141.976562 144.378906 143.324219 144.167969 C 144.671875 143.953125 146.03125 143.757812 147.394531 143.582031 C 148.761719 143.402344 150.136719 143.242188 151.519531 143.101562 C 152.898438 142.957031 154.285156 142.832031 155.679688 142.726562 C 157.074219 142.617188 158.472656 142.53125 159.875 142.457031 C 161.273438 142.386719 162.679688 142.332031 164.085938 142.296875 C 165.492188 142.261719 166.902344 142.242188 168.308594 142.242188 C 169.71875 142.242188 171.125 142.261719 172.53125 142.296875 C 173.941406 142.332031 175.34375 142.386719 176.746094 142.457031 C 178.148438 142.53125 179.546875 142.617188 180.9375 142.726562 C 182.332031 142.832031 183.71875 142.957031 185.101562 143.101562 C 186.484375 143.242188 187.855469 143.402344 189.222656 143.582031 C 190.589844 143.757812 191.945312 143.953125 193.292969 144.167969 C 194.644531 144.378906 195.980469 144.609375 197.304688 144.855469 C 198.632812 145.101562 199.945312 145.363281 201.246094 145.644531 C 202.550781 145.921875 203.835938 146.21875 205.109375 146.53125 C 206.382812 146.84375 207.640625 147.171875 208.882812 147.519531 C 210.125 147.863281 211.351562 148.222656 212.558594 148.597656 C 213.765625 148.976562 214.957031 149.367188 216.128906 149.773438 C 217.300781 150.179688 218.449219 150.601562 219.582031 151.035156 C 220.714844 151.472656 221.824219 151.921875 222.914062 152.382812 C 224 152.847656 225.066406 153.324219 226.109375 153.816406 C 227.15625 154.308594 228.175781 154.8125 229.171875 155.328125 C 230.167969 155.847656 231.136719 156.375 232.082031 156.917969 C 233.03125 157.460938 233.949219 158.011719 234.84375 158.578125 C 235.738281 159.144531 236.601562 159.71875 237.441406 160.308594 C 238.28125 160.894531 239.09375 161.492188 239.875 162.101562 C 240.65625 162.707031 241.410156 163.324219 242.136719 163.953125 C 242.859375 164.578125 243.554688 165.214844 244.21875 165.859375 C 244.882812 166.503906 245.515625 167.160156 246.117188 167.820312 C 246.71875 168.480469 247.289062 169.148438 247.828125 169.824219 C 248.367188 170.5 248.875 171.183594 249.347656 171.871094 C 249.824219 172.558594 250.265625 173.253906 250.675781 173.953125 C 251.082031 174.652344 251.457031 175.355469 251.800781 176.066406 C 252.144531 176.777344 252.453125 177.488281 252.726562 178.207031 C 253 178.921875 253.242188 179.644531 253.449219 180.367188 C 253.65625 181.089844 253.828125 181.816406 253.964844 182.542969 C 254.105469 183.269531 254.207031 184 254.277344 184.730469 C 254.347656 185.460938 254.378906 186.191406 254.378906 186.921875 Z M 254.378906 186.921875 " fill-opacity="1" fill-rule="nonzero"/><path fill="#3c979f" d="M 168.308594 236.765625 C 117.15625 236.765625 77.085938 214.871094 77.085938 186.921875 C 77.085938 158.972656 117.15625 137.078125 168.308594 137.078125 C 219.460938 137.078125 259.53125 158.972656 259.53125 186.921875 C 259.53125 214.871094 219.460938 236.765625 168.308594 236.765625 Z M 168.308594 147.40625 C 124.445312 147.40625 87.390625 165.503906 87.390625 186.921875 C 87.390625 208.34375 124.445312 226.4375 168.308594 226.4375 C 212.171875 226.4375 249.230469 208.34375 249.230469 186.921875 C 249.230469 165.5 212.171875 147.40625 168.308594 147.40625 Z M 168.308594 147.40625 " fill-opacity="1" fill-rule="nonzero"/><path fill="#73b3b2" d="M 232.460938 124.699219 C 232.460938 125.789062 232.355469 126.878906 232.148438 127.964844 C 231.945312 129.050781 231.636719 130.125 231.226562 131.195312 C 230.816406 132.265625 230.308594 133.324219 229.695312 134.367188 C 229.085938 135.410156 228.378906 136.4375 227.574219 137.441406 C 226.773438 138.449219 225.875 139.4375 224.882812 140.398438 C 223.894531 141.359375 222.816406 142.292969 221.648438 143.199219 C 220.480469 144.105469 219.230469 144.980469 217.898438 145.824219 C 216.566406 146.667969 215.15625 147.476562 213.671875 148.246094 C 212.183594 149.019531 210.628906 149.75 209.003906 150.441406 C 207.382812 151.132812 205.695312 151.78125 203.949219 152.386719 C 202.203125 152.992188 200.402344 153.554688 198.550781 154.066406 C 196.695312 154.582031 194.800781 155.046875 192.859375 155.464844 C 190.917969 155.882812 188.941406 156.25 186.929688 156.566406 C 184.921875 156.882812 182.886719 157.148438 180.824219 157.359375 C 178.765625 157.574219 176.6875 157.734375 174.597656 157.839844 C 172.507812 157.945312 170.410156 158 168.308594 158 C 166.207031 158 164.113281 157.945312 162.023438 157.839844 C 159.929688 157.734375 157.855469 157.574219 155.792969 157.359375 C 153.734375 157.148438 151.699219 156.882812 149.6875 156.566406 C 147.675781 156.25 145.703125 155.882812 143.761719 155.464844 C 141.820312 155.046875 139.921875 154.582031 138.070312 154.066406 C 136.21875 153.554688 134.417969 152.992188 132.671875 152.386719 C 130.921875 151.78125 129.238281 151.132812 127.613281 150.441406 C 125.988281 149.75 124.433594 149.019531 122.949219 148.246094 C 121.464844 147.476562 120.054688 146.667969 118.722656 145.824219 C 117.386719 144.980469 116.136719 144.105469 114.972656 143.199219 C 113.804688 142.292969 112.726562 141.359375 111.734375 140.398438 C 110.746094 139.4375 109.847656 138.449219 109.042969 137.441406 C 108.238281 136.4375 107.53125 135.410156 106.921875 134.367188 C 106.3125 133.324219 105.800781 132.265625 105.394531 131.195312 C 104.984375 130.125 104.675781 129.050781 104.46875 127.964844 C 104.261719 126.878906 104.160156 125.789062 104.160156 124.699219 C 104.160156 123.609375 104.261719 122.519531 104.46875 121.4375 C 104.675781 120.351562 104.984375 119.273438 105.394531 118.203125 C 105.800781 117.132812 106.3125 116.078125 106.921875 115.03125 C 107.53125 113.988281 108.238281 112.964844 109.042969 111.957031 C 109.847656 110.949219 110.746094 109.964844 111.734375 109 C 112.726562 108.039062 113.804688 107.105469 114.972656 106.199219 C 116.136719 105.292969 117.386719 104.417969 118.722656 103.574219 C 120.054688 102.730469 121.464844 101.921875 122.949219 101.152344 C 124.433594 100.382812 125.988281 99.648438 127.613281 98.957031 C 129.238281 98.265625 130.921875 97.617188 132.671875 97.011719 C 134.417969 96.40625 136.21875 95.84375 138.070312 95.332031 C 139.921875 94.816406 141.820312 94.351562 143.761719 93.933594 C 145.703125 93.515625 147.675781 93.148438 149.6875 92.832031 C 151.699219 92.515625 153.734375 92.25 155.792969 92.039062 C 157.855469 91.824219 159.929688 91.667969 162.023438 91.558594 C 164.113281 91.453125 166.207031 91.398438 168.308594 91.398438 C 170.410156 91.398438 172.507812 91.453125 174.597656 91.558594 C 176.6875 91.667969 178.765625 91.824219 180.824219 92.039062 C 182.886719 92.25 184.921875 92.515625 186.929688 92.832031 C 188.941406 93.148438 190.917969 93.515625 192.859375 93.933594 C 194.800781 94.351562 196.695312 94.816406 198.550781 95.332031 C 200.402344 95.84375 202.203125 96.40625 203.949219 97.011719 C 205.695312 97.617188 207.382812 98.265625 209.003906 98.957031 C 210.628906 99.648438 212.183594 100.382812 213.671875 101.152344 C 215.15625 101.921875 216.566406 102.730469 217.898438 103.574219 C 219.230469 104.417969 220.480469 105.292969 221.648438 106.199219 C 222.816406 107.105469 223.894531 108.039062 224.882812 109 C 225.875 109.964844 226.773438 110.949219 227.574219 111.957031 C 228.378906 112.964844 229.085938 113.988281 229.695312 115.03125 C 230.308594 116.078125 230.816406 117.132812 231.226562 118.203125 C 231.636719 119.273438 231.945312 120.351562 232.148438 121.4375 C 232.355469 122.519531 232.460938 123.609375 232.460938 124.699219 Z M 232.460938 124.699219 " fill-opacity="1" fill-rule="nonzero"/><path fill="#3c979f" d="M 168.308594 163.164062 C 129.449219 163.164062 99.007812 146.269531 99.007812 124.699219 C 99.007812 103.128906 129.449219 86.234375 168.308594 86.234375 C 207.171875 86.234375 237.609375 103.128906 237.609375 124.699219 C 237.609375 146.269531 207.167969 163.164062 168.308594 163.164062 Z M 168.308594 96.5625 C 133.019531 96.5625 109.3125 111.113281 109.3125 124.699219 C 109.3125 138.289062 133.019531 152.835938 168.308594 152.835938 C 203.601562 152.835938 227.308594 138.289062 227.308594 124.699219 C 227.308594 111.113281 203.601562 96.5625 168.308594 96.5625 Z M 168.308594 96.5625 " fill-opacity="1" fill-rule="nonzero"/><path fill="#73b3b2" d="M 216.878906 77.449219 C 216.878906 78.277344 216.800781 79.101562 216.644531 79.921875 C 216.488281 80.742188 216.253906 81.558594 215.945312 82.367188 C 215.632812 83.179688 215.246094 83.980469 214.785156 84.769531 C 214.324219 85.558594 213.789062 86.335938 213.179688 87.097656 C 212.570312 87.863281 211.890625 88.605469 211.140625 89.335938 C 210.394531 90.0625 209.574219 90.769531 208.691406 91.457031 C 207.808594 92.144531 206.863281 92.808594 205.851562 93.445312 C 204.84375 94.082031 203.777344 94.695312 202.652344 95.277344 C 201.527344 95.863281 200.351562 96.417969 199.121094 96.941406 C 197.890625 97.464844 196.613281 97.957031 195.292969 98.414062 C 193.96875 98.871094 192.605469 99.296875 191.203125 99.6875 C 189.800781 100.074219 188.363281 100.429688 186.894531 100.742188 C 185.425781 101.058594 183.929688 101.335938 182.40625 101.578125 C 180.886719 101.816406 179.34375 102.015625 177.785156 102.179688 C 176.222656 102.339844 174.652344 102.460938 173.070312 102.542969 C 171.488281 102.621094 169.898438 102.664062 168.308594 102.664062 C 166.71875 102.664062 165.132812 102.621094 163.550781 102.542969 C 161.964844 102.460938 160.394531 102.339844 158.835938 102.179688 C 157.273438 102.015625 155.734375 101.816406 154.210938 101.578125 C 152.6875 101.335938 151.191406 101.058594 149.722656 100.742188 C 148.253906 100.429688 146.816406 100.074219 145.414062 99.6875 C 144.011719 99.296875 142.648438 98.871094 141.328125 98.414062 C 140.003906 97.957031 138.726562 97.464844 137.5 96.941406 C 136.269531 96.417969 135.09375 95.863281 133.96875 95.277344 C 132.84375 94.695312 131.773438 94.082031 130.765625 93.445312 C 129.757812 92.808594 128.8125 92.144531 127.925781 91.457031 C 127.042969 90.769531 126.226562 90.0625 125.476562 89.335938 C 124.726562 88.605469 124.046875 87.863281 123.4375 87.097656 C 122.832031 86.335938 122.296875 85.558594 121.832031 84.769531 C 121.371094 83.980469 120.984375 83.179688 120.675781 82.367188 C 120.363281 81.558594 120.132812 80.742188 119.976562 79.921875 C 119.820312 79.101562 119.742188 78.277344 119.742188 77.449219 C 119.742188 76.625 119.820312 75.800781 119.976562 74.980469 C 120.132812 74.15625 120.363281 73.339844 120.675781 72.53125 C 120.984375 71.722656 121.371094 70.921875 121.832031 70.132812 C 122.296875 69.339844 122.832031 68.566406 123.4375 67.800781 C 124.046875 67.039062 124.726562 66.292969 125.476562 65.566406 C 126.226562 64.835938 127.042969 64.128906 127.925781 63.441406 C 128.8125 62.757812 129.757812 62.09375 130.765625 61.457031 C 131.773438 60.816406 132.84375 60.207031 133.96875 59.621094 C 135.09375 59.039062 136.269531 58.484375 137.5 57.960938 C 138.726562 57.4375 140.003906 56.945312 141.328125 56.488281 C 142.648438 56.027344 144.011719 55.605469 145.414062 55.214844 C 146.816406 54.824219 148.253906 54.472656 149.722656 54.15625 C 151.191406 53.839844 152.6875 53.5625 154.210938 53.324219 C 155.734375 53.082031 157.273438 52.882812 158.835938 52.722656 C 160.394531 52.5625 161.964844 52.441406 163.550781 52.359375 C 165.132812 52.277344 166.71875 52.238281 168.308594 52.238281 C 169.898438 52.238281 171.488281 52.277344 173.070312 52.359375 C 174.652344 52.441406 176.222656 52.5625 177.785156 52.722656 C 179.34375 52.882812 180.886719 53.082031 182.40625 53.324219 C 183.929688 53.5625 185.425781 53.839844 186.894531 54.15625 C 188.363281 54.472656 189.800781 54.824219 191.203125 55.214844 C 192.605469 55.605469 193.96875 56.027344 195.292969 56.488281 C 196.613281 56.945312 197.890625 57.4375 199.121094 57.960938 C 200.351562 58.484375 201.527344 59.039062 202.652344 59.621094 C 203.777344 60.207031 204.84375 60.816406 205.851562 61.457031 C 206.863281 62.09375 207.808594 62.757812 208.691406 63.441406 C 209.574219 64.128906 210.394531 64.835938 211.140625 65.566406 C 211.890625 66.292969 212.570312 67.039062 213.179688 67.800781 C 213.789062 68.566406 214.324219 69.339844 214.785156 70.132812 C 215.246094 70.921875 215.632812 71.722656 215.945312 72.53125 C 216.253906 73.339844 216.488281 74.15625 216.644531 74.980469 C 216.800781 75.800781 216.878906 76.625 216.878906 77.449219 Z M 216.878906 77.449219 " fill-opacity="1" fill-rule="nonzero"/><g clip-path="url(#5d0a9fa9b4)"><path fill="#3c979f" d="M 168.308594 107.828125 C 138.1875 107.828125 114.589844 94.484375 114.589844 77.449219 C 114.589844 60.417969 138.1875 47.074219 168.308594 47.074219 C 198.433594 47.074219 222.027344 60.417969 222.027344 77.449219 C 222.027344 94.484375 198.433594 107.828125 168.308594 107.828125 Z M 168.308594 57.402344 C 142.722656 57.402344 124.894531 67.96875 124.894531 77.449219 C 124.894531 86.933594 142.722656 97.5 168.308594 97.5 C 193.894531 97.5 211.726562 86.933594 211.726562 77.449219 C 211.726562 67.96875 193.894531 57.402344 168.308594 57.402344 Z M 168.308594 57.402344 " fill-opacity="1" fill-rule="nonzero"/></g><path fill="#aecfd0" d="M 288.671875 203.859375 C 271.578125 220.996094 243.816406 220.953125 243.816406 220.953125 C 243.816406 220.953125 243.773438 193.125 260.867188 175.988281 C 277.964844 158.847656 305.726562 158.890625 305.726562 158.890625 C 305.726562 158.890625 305.769531 186.71875 288.671875 203.859375 Z M 288.671875 203.859375 " fill-opacity="1" fill-rule="nonzero"/><path fill="#3c979f" d="M 243.816406 226.117188 C 243.816406 226.117188 243.808594 226.117188 243.808594 226.117188 C 240.96875 226.113281 238.667969 223.808594 238.664062 220.960938 C 238.660156 219.738281 238.828125 190.777344 257.226562 172.335938 C 275.578125 153.9375 304.5 153.726562 305.722656 153.726562 C 308.566406 153.726562 310.875 156.035156 310.878906 158.882812 C 310.878906 160.105469 310.710938 189.066406 292.316406 207.511719 C 273.964844 225.90625 245.039062 226.117188 243.816406 226.117188 Z M 300.195312 164.449219 C 291.757812 165.398438 275.492188 168.628906 264.511719 179.636719 C 253.484375 190.691406 250.277344 206.949219 249.347656 215.394531 C 257.789062 214.445312 274.050781 211.210938 285.027344 200.207031 C 296.054688 189.152344 299.261719 172.894531 300.195312 164.449219 Z M 300.195312 164.449219 " fill-opacity="1" fill-rule="nonzero"/><path fill="#aecfd0" d="M 226.761719 175.988281 C 243.855469 193.125 243.816406 220.953125 243.816406 220.953125 C 243.816406 220.953125 216.054688 220.996094 198.957031 203.859375 C 181.859375 186.71875 181.902344 158.890625 181.902344 158.890625 C 181.902344 158.890625 209.664062 158.847656 226.761719 175.988281 Z M 226.761719 175.988281 " fill-opacity="1" fill-rule="nonzero"/><path fill="#3c979f" d="M 243.820312 226.117188 C 242.722656 226.117188 213.703125 225.945312 195.3125 207.511719 C 176.917969 189.066406 176.75 160.105469 176.75 158.882812 C 176.753906 156.039062 179.054688 153.730469 181.894531 153.726562 C 183.128906 153.726562 212.054688 153.9375 230.402344 172.335938 C 248.800781 190.777344 248.96875 219.738281 248.964844 220.960938 C 248.960938 223.808594 246.660156 226.113281 243.820312 226.117188 Z M 187.449219 164.449219 C 188.398438 172.910156 191.625 189.203125 202.597656 200.207031 C 213.574219 211.207031 229.824219 214.441406 238.269531 215.394531 C 237.320312 206.933594 234.09375 190.640625 223.117188 179.636719 C 212.144531 168.636719 195.890625 165.402344 187.449219 164.449219 Z M 187.449219 164.449219 " fill-opacity="1" fill-rule="nonzero"/><path fill="#aecfd0" d="M 200.035156 201.246094 C 224.214844 201.246094 243.8125 220.953125 243.8125 220.953125 C 243.8125 220.953125 224.214844 240.660156 200.035156 240.660156 C 175.859375 240.660156 156.257812 220.953125 156.257812 220.953125 C 156.257812 220.953125 175.859375 201.246094 200.035156 201.246094 Z M 200.035156 201.246094 " fill-opacity="1" fill-rule="nonzero"/><g clip-path="url(#947230b33a)"><path fill="#3c979f" d="M 200.035156 245.824219 C 174.019531 245.824219 153.472656 225.464844 152.609375 224.601562 C 150.605469 222.585938 150.605469 219.324219 152.609375 217.308594 C 153.472656 216.441406 174.019531 196.082031 200.035156 196.082031 C 226.054688 196.082031 246.601562 216.441406 247.464844 217.308594 C 249.46875 219.324219 249.46875 222.582031 247.464844 224.601562 C 246.601562 225.464844 226.054688 245.824219 200.035156 245.824219 Z M 164.101562 220.953125 C 170.738281 226.261719 184.515625 235.496094 200.035156 235.496094 C 215.628906 235.496094 229.367188 226.273438 235.980469 220.960938 C 229.347656 215.652344 215.566406 206.410156 200.035156 206.410156 C 184.515625 206.410156 170.742188 215.640625 164.101562 220.953125 Z M 164.101562 220.953125 " fill-opacity="1" fill-rule="nonzero"/></g><path fill="#aecfd0" d="M 287.59375 240.660156 C 263.414062 240.660156 243.816406 220.953125 243.816406 220.953125 C 243.816406 220.953125 263.414062 201.246094 287.59375 201.246094 C 311.769531 201.246094 331.371094 220.953125 331.371094 220.953125 C 331.371094 220.953125 311.769531 240.660156 287.59375 240.660156 Z M 287.59375 240.660156 " fill-opacity="1" fill-rule="nonzero"/><g clip-path="url(#a4cc036cd1)"><path fill="#3c979f" d="M 287.59375 245.824219 C 261.574219 245.824219 241.027344 225.464844 240.167969 224.601562 C 238.160156 222.585938 238.160156 219.324219 240.167969 217.308594 C 241.027344 216.441406 261.574219 196.082031 287.59375 196.082031 C 313.609375 196.082031 334.15625 216.441406 335.019531 217.308594 C 337.023438 219.324219 337.023438 222.582031 335.019531 224.601562 C 334.15625 225.464844 313.609375 245.824219 287.59375 245.824219 Z M 251.65625 220.953125 C 258.296875 226.261719 272.074219 235.496094 287.59375 235.496094 C 303.1875 235.496094 316.921875 226.273438 323.539062 220.960938 C 316.902344 215.652344 303.121094 206.410156 287.59375 206.410156 C 272.074219 206.410156 258.296875 215.640625 251.65625 220.953125 Z M 251.65625 220.953125 " fill-opacity="1" fill-rule="nonzero"/></g><path fill="#aecfd0" d="M 263.476562 177.070312 C 263.476562 201.304688 243.816406 220.953125 243.816406 220.953125 C 243.816406 220.953125 224.15625 201.304688 224.15625 177.070312 C 224.15625 152.832031 243.816406 133.183594 243.816406 133.183594 C 243.816406 133.183594 263.476562 152.832031 263.476562 177.070312 Z M 263.476562 177.070312 " fill-opacity="1" fill-rule="nonzero"/><path fill="#3c979f" d="M 243.816406 226.117188 C 242.5 226.117188 241.183594 225.613281 240.179688 224.609375 C 239.3125 223.746094 219.003906 203.148438 219.003906 177.070312 C 219.003906 150.988281 239.3125 130.390625 240.179688 129.527344 C 242.1875 127.515625 245.441406 127.515625 247.453125 129.527344 C 248.316406 130.390625 268.628906 150.988281 268.628906 177.070312 C 268.628906 203.148438 248.316406 223.746094 247.453125 224.609375 C 246.445312 225.613281 245.132812 226.117188 243.816406 226.117188 Z M 243.8125 141.046875 C 238.515625 147.699219 229.304688 161.507812 229.304688 177.066406 C 229.304688 192.625 238.515625 206.433594 243.816406 213.089844 C 249.113281 206.433594 258.324219 192.625 258.324219 177.066406 C 258.324219 161.511719 249.113281 147.703125 243.8125 141.046875 Z M 243.8125 141.046875 " fill-opacity="1" fill-rule="nonzero"/><g fill="#3c979f" fill-opacity="1"><g transform="translate(37.520361, 305.818844)"><g><path d="M 1.78125 -3.65625 C 1.78125 -3.800781 1.847656 -4.082031 1.984375 -4.5 L 23.34375 -74.125 C 23.96875 -76.144531 25.78125 -77.15625 28.78125 -77.15625 C 31.789062 -77.15625 33.609375 -76.144531 34.234375 -74.125 L 55.59375 -4.5 C 55.59375 -4.363281 55.609375 -4.222656 55.640625 -4.078125 C 55.671875 -3.941406 55.6875 -3.835938 55.6875 -3.765625 C 55.6875 -2.785156 55.109375 -1.910156 53.953125 -1.140625 C 52.804688 -0.378906 51.570312 0 50.25 0 C 48.570312 0 47.523438 -0.660156 47.109375 -1.984375 L 42.5 -17.59375 L 14.96875 -17.59375 L 10.359375 -1.984375 C 9.941406 -0.660156 8.863281 0 7.125 0 C 5.863281 0 4.65625 -0.347656 3.5 -1.046875 C 2.351562 -1.742188 1.78125 -2.613281 1.78125 -3.65625 Z M 16.953125 -24.8125 L 40.40625 -24.8125 L 28.78125 -64.171875 Z M 16.953125 -24.8125 "/></g></g></g><g fill="#3c979f" fill-opacity="1"><g transform="translate(95.087434, 305.818844)"><g><path d="M 1.46875 -46.0625 C 1.46875 -47.101562 2.039062 -47.988281 3.1875 -48.71875 C 4.34375 -49.457031 5.546875 -49.828125 6.796875 -49.828125 C 8.265625 -49.828125 9.207031 -49.269531 9.625 -48.15625 L 22.296875 -12.984375 L 32.140625 -44.703125 C 32.628906 -46.097656 33.710938 -46.796875 35.390625 -46.796875 C 37.128906 -46.796875 38.242188 -46.097656 38.734375 -44.703125 L 48.359375 -12.671875 L 61.140625 -48.15625 C 61.484375 -49.269531 62.390625 -49.828125 63.859375 -49.828125 C 65.117188 -49.828125 66.335938 -49.457031 67.515625 -48.71875 C 68.703125 -47.988281 69.296875 -47.101562 69.296875 -46.0625 C 69.296875 -45.5 69.160156 -44.941406 68.890625 -44.390625 L 52.546875 -0.9375 C 52.054688 0.3125 50.90625 0.9375 49.09375 0.9375 C 47.207031 0.9375 46.019531 0.3125 45.53125 -0.9375 L 35.390625 -31.71875 L 25.4375 -1.25 C 24.945312 0.207031 23.691406 0.9375 21.671875 0.9375 C 19.859375 0.9375 18.671875 0.207031 18.109375 -1.25 L 1.890625 -44.390625 C 1.609375 -45.222656 1.46875 -45.78125 1.46875 -46.0625 Z M 1.46875 -46.0625 "/></g></g></g><g fill="#3c979f" fill-opacity="1"><g transform="translate(165.737935, 305.818844)"><g><path d="M 2.9375 -13.078125 C 2.9375 -18.523438 5.03125 -22.3125 9.21875 -24.4375 C 13.40625 -26.570312 19.472656 -27.640625 27.421875 -27.640625 L 32.453125 -27.640625 L 32.453125 -29.828125 C 32.453125 -33.316406 31.488281 -36.351562 29.5625 -38.9375 C 27.644531 -41.519531 24.769531 -42.8125 20.9375 -42.8125 C 18.007812 -42.8125 15.425781 -42.304688 13.1875 -41.296875 C 10.957031 -40.285156 9.738281 -39.78125 9.53125 -39.78125 C 8.550781 -39.78125 7.765625 -40.25 7.171875 -41.1875 C 6.578125 -42.132812 6.28125 -43.128906 6.28125 -44.171875 C 6.28125 -45.773438 7.867188 -47.1875 11.046875 -48.40625 C 14.222656 -49.632812 17.585938 -50.25 21.140625 -50.25 C 27.984375 -50.25 33.023438 -48.3125 36.265625 -44.4375 C 39.515625 -40.5625 41.140625 -35.726562 41.140625 -29.9375 L 41.140625 -3.140625 C 41.140625 -2.234375 40.738281 -1.484375 39.9375 -0.890625 C 39.132812 -0.296875 38.101562 0 36.84375 0 C 35.726562 0 34.785156 -0.296875 34.015625 -0.890625 C 33.253906 -1.484375 32.875 -2.234375 32.875 -3.140625 L 32.875 -7.328125 C 28.125 -1.878906 22.851562 0.84375 17.0625 0.84375 C 12.875 0.84375 9.472656 -0.34375 6.859375 -2.71875 C 4.242188 -5.09375 2.9375 -8.546875 2.9375 -13.078125 Z M 11.71875 -14.03125 C 11.71875 -11.445312 12.453125 -9.488281 13.921875 -8.15625 C 15.390625 -6.832031 17.34375 -6.171875 19.78125 -6.171875 C 22.71875 -6.171875 25.5625 -7.335938 28.3125 -9.671875 C 31.070312 -12.015625 32.453125 -14.410156 32.453125 -16.859375 L 32.453125 -22.296875 L 28.78125 -22.296875 C 26.757812 -22.296875 25.015625 -22.242188 23.546875 -22.140625 C 22.085938 -22.035156 20.570312 -21.828125 19 -21.515625 C 17.425781 -21.203125 16.132812 -20.75 15.125 -20.15625 C 14.113281 -19.5625 13.289062 -18.753906 12.65625 -17.734375 C 12.03125 -16.722656 11.71875 -15.488281 11.71875 -14.03125 Z M 11.71875 -14.03125 "/></g></g></g><g fill="#3c979f" fill-opacity="1"><g transform="translate(212.628929, 305.818844)"><g><path d="M 4.390625 -19.46875 L 4.390625 -29.9375 C 4.390625 -35.9375 6.148438 -40.820312 9.671875 -44.59375 C 13.203125 -48.363281 18.390625 -50.25 25.234375 -50.25 C 29.554688 -50.25 33.203125 -49.476562 36.171875 -47.9375 C 39.140625 -46.40625 40.625 -44.769531 40.625 -43.03125 C 40.625 -42.050781 40.253906 -41.085938 39.515625 -40.140625 C 38.785156 -39.203125 37.929688 -38.734375 36.953125 -38.734375 C 36.671875 -38.734375 35.46875 -39.34375 33.34375 -40.5625 C 31.21875 -41.78125 28.722656 -42.390625 25.859375 -42.390625 C 21.671875 -42.390625 18.492188 -41.304688 16.328125 -39.140625 C 14.160156 -36.984375 13.078125 -33.914062 13.078125 -29.9375 L 13.078125 -19.46875 C 13.078125 -11.164062 17.375 -7.015625 25.96875 -7.015625 C 28.894531 -7.015625 31.4375 -7.640625 33.59375 -8.890625 C 35.757812 -10.148438 37.019531 -10.78125 37.375 -10.78125 C 38.488281 -10.78125 39.410156 -10.328125 40.140625 -9.421875 C 40.878906 -8.515625 41.25 -7.570312 41.25 -6.59375 C 41.25 -4.851562 39.710938 -3.175781 36.640625 -1.5625 C 33.566406 0.0390625 29.796875 0.84375 25.328125 0.84375 C 18.421875 0.84375 13.203125 -1.019531 9.671875 -4.75 C 6.148438 -8.488281 4.390625 -13.394531 4.390625 -19.46875 Z M 4.390625 -19.46875 "/></g></g></g><g fill="#3c979f" fill-opacity="1"><g transform="translate(256.275237, 305.818844)"><g><path d="M 2.9375 -13.078125 C 2.9375 -18.523438 5.03125 -22.3125 9.21875 -24.4375 C 13.40625 -26.570312 19.472656 -27.640625 27.421875 -27.640625 L 32.453125 -27.640625 L 32.453125 -29.828125 C 32.453125 -33.316406 31.488281 -36.351562 29.5625 -38.9375 C 27.644531 -41.519531 24.769531 -42.8125 20.9375 -42.8125 C 18.007812 -42.8125 15.425781 -42.304688 13.1875 -41.296875 C 10.957031 -40.285156 9.738281 -39.78125 9.53125 -39.78125 C 8.550781 -39.78125 7.765625 -40.25 7.171875 -41.1875 C 6.578125 -42.132812 6.28125 -43.128906 6.28125 -44.171875 C 6.28125 -45.773438 7.867188 -47.1875 11.046875 -48.40625 C 14.222656 -49.632812 17.585938 -50.25 21.140625 -50.25 C 27.984375 -50.25 33.023438 -48.3125 36.265625 -44.4375 C 39.515625 -40.5625 41.140625 -35.726562 41.140625 -29.9375 L 41.140625 -3.140625 C 41.140625 -2.234375 40.738281 -1.484375 39.9375 -0.890625 C 39.132812 -0.296875 38.101562 0 36.84375 0 C 35.726562 0 34.785156 -0.296875 34.015625 -0.890625 C 33.253906 -1.484375 32.875 -2.234375 32.875 -3.140625 L 32.875 -7.328125 C 28.125 -1.878906 22.851562 0.84375 17.0625 0.84375 C 12.875 0.84375 9.472656 -0.34375 6.859375 -2.71875 C 4.242188 -5.09375 2.9375 -8.546875 2.9375 -13.078125 Z M 11.71875 -14.03125 C 11.71875 -11.445312 12.453125 -9.488281 13.921875 -8.15625 C 15.390625 -6.832031 17.34375 -6.171875 19.78125 -6.171875 C 22.71875 -6.171875 25.5625 -7.335938 28.3125 -9.671875 C 31.070312 -12.015625 32.453125 -14.410156 32.453125 -16.859375 L 32.453125 -22.296875 L 28.78125 -22.296875 C 26.757812 -22.296875 25.015625 -22.242188 23.546875 -22.140625 C 22.085938 -22.035156 20.570312 -21.828125 19 -21.515625 C 17.425781 -21.203125 16.132812 -20.75 15.125 -20.15625 C 14.113281 -19.5625 13.289062 -18.753906 12.65625 -17.734375 C 12.03125 -16.722656 11.71875 -15.488281 11.71875 -14.03125 Z M 11.71875 -14.03125 "/></g></g></g></svg>